<?xml version="1.0" encoding="UTF-8"?><svg id="Layer_1" xmlns="http://www.w3.org/2000/svg" xmlns:xlink="http://www.w3.org/1999/xlink" viewBox="0 0 995 995"><defs><style>.cls-1{fill:none;}.cls-2{clip-path:url(#clippath);}.cls-3{fill:#67e8f9;}.cls-4{fill:#cafeff;}</style><clipPath id="clippath"><path class="cls-1" d="M330.84,88.02c0-22.06,115.93-49.36,126.45-48.27,10.53,1.09,178.35,62.12,184.89,64.3,6.54,2.18,139.49,104.62,141.67,110.06,2.18,5.45-25.06,170.89-26.15,173.71s-101.35,86.74-101.35,86.74l-325.51-30.55V88.02Z"/></clipPath></defs><g><path class="cls-3" d="M457.45,541.7c0,10.36,8.11,18.89,18.46,19.47,45.58,2.53,81.64,14.68,108.19,36.45,30.04,24.64,45.06,59.03,45.06,103.15s-14.86,78.1-44.63,101.87c-29.77,23.79-72.13,35.67-127.08,35.67h-126.61V88.04h-63.9V891.28h207.61c45.83,0,85.28-7.47,118.31-22.43,33.05-14.94,58.39-36.52,76.05-64.71,17.66-28.18,26.49-62.07,26.49-101.66,0-50.1-14.24-90.62-42.73-121.51-20.8-22.59-47.99-38.91-81.58-48.92-1.03-.31-2.06-.6-3.1-.89-26.67-7.38-60.43-8.71-90.85-8.95-10.84-.09-19.68,8.66-19.68,19.5h0Z"/><path class="cls-4" d="M469.38,730.74l-5.05-8.78c14.78-4.55,25.15-19.2,23.1-35.93-1.83-15.02-14.01-27.1-28.99-28.78-19.97-2.24-36.88,13.38-36.88,32.98,0,14.94,9.84,27.57,23.36,31.74l-5.05,8.78-12.13,21.1c-1.16,2.02,.29,4.55,2.62,4.55h48.54c2.33,0,3.78-2.53,2.62-4.55l-12.13-21.1Z"/></g><g class="cls-2"><path class="cls-4" d="M303.79,767.49h-10.05c-14.79,0-26.79-11.99-26.79-26.79V114.8c0-14.79,11.99-26.79,26.79-26.79h152.35c45.2,0,84.26,7.82,117.19,23.44,32.93,15.63,58.39,37.95,76.39,66.97,17.99,29.02,26.99,63.9,26.99,104.64v83.37c0,46.86-64.96,44.13-64.96,2.24,0-27.61-.33-53.8-.33-83.93s-6.98-56.85-20.93-78.48c-13.96-21.62-33.69-38.09-59.23-49.39-25.53-11.3-55.6-16.95-90.19-16.95h-73.66c-14.79,0-26.79,11.99-26.79,26.79V740.7c0,14.79-11.99,26.79-26.79,26.79Z"/></g></svg>