<svg version="1.1" id="Layer_1" xmlns="http://www.w3.org/2000/svg" xmlns:xlink="http://www.w3.org/1999/xlink" x="0px" y="0px"
	 width="100%" viewBox="0 0 793 1271" enable-background="new 0 0 793 1271" xml:space="preserve">
<path fill="#67E8F9" opacity="1.000000" stroke="none" 
	d="
M655.000000,1272.000000 
	C483.641754,1272.000000 312.283508,1272.000000 140.264862,1271.675781 
	C136.429520,1270.576782 133.275925,1269.697754 130.076309,1269.043701 
	C101.372360,1263.176147 76.407326,1250.024292 54.851261,1230.321899 
	C38.608479,1215.476074 26.307016,1197.744263 17.365301,1177.703125 
	C9.210503,1159.425537 4.173291,1140.187866 4.129889,1120.210327 
	C3.868484,999.888611 3.875666,879.565735 4.188807,759.244263 
	C4.220766,746.964539 5.587571,734.369751 8.554636,722.474854 
	C18.155796,683.984070 39.283691,652.908569 71.990707,630.176758 
	C76.518967,627.029480 78.122536,623.963562 78.133972,618.544373 
	C78.215065,580.096680 78.378502,541.643921 79.168121,503.206177 
	C79.414276,491.223755 81.125549,479.190826 83.118073,467.341095 
	C87.765457,439.702789 96.505783,413.271790 108.553154,387.984924 
	C120.767891,362.346741 136.184586,338.790955 154.977814,317.429901 
	C169.158676,301.311432 184.471375,286.390747 201.477737,273.327393 
	C224.398117,255.721222 249.468262,241.784027 276.253143,230.900925 
	C306.769897,218.501480 338.569672,211.119843 371.313354,209.270370 
	C397.929596,207.766968 424.591034,208.808853 451.048676,213.833511 
	C487.491486,220.754471 521.571533,233.704910 553.446533,252.335083 
	C583.119446,269.678162 608.832642,291.931152 631.438477,317.852753 
	C647.703247,336.503174 661.436890,356.833405 672.855591,378.716461 
	C684.973816,401.940308 693.856079,426.421234 699.843079,451.920563 
	C704.684814,472.542114 707.585022,493.500732 707.876160,514.647888 
	C708.339661,548.305054 708.036865,581.973450 707.941772,615.636719 
	C707.932495,618.924683 708.991577,620.584534 711.820740,622.614624 
	C723.601807,631.068054 735.865417,639.177795 746.228333,649.196594 
	C759.565063,662.090454 769.770508,677.679626 777.386963,694.784607 
	C785.387878,712.752991 790.861084,731.464294 790.895386,751.167786 
	C791.104736,871.322998 791.017090,991.478821 790.957886,1111.634399 
	C790.954285,1118.916992 790.579041,1126.218994 789.967896,1133.477661 
	C788.610718,1149.597656 783.688232,1164.784302 777.183655,1179.488525 
	C766.995300,1202.520264 751.492310,1221.447144 732.143860,1237.360474 
	C714.914490,1251.531128 695.378601,1261.188477 673.895996,1267.002930 
	C667.607178,1268.704956 661.299194,1270.336304 655.000000,1272.000000 
M452.031097,314.518372 
	C435.901489,309.327148 419.184265,306.677979 402.423828,306.299957 
	C386.943146,305.950745 371.225922,306.963562 355.935425,309.400269 
	C331.863586,313.236389 309.089020,321.537384 287.740265,333.600952 
	C263.992340,347.020233 243.176270,363.956909 225.750473,384.898224 
	C210.314682,403.448029 198.303909,424.126801 189.738480,446.701996 
	C182.090149,466.860046 176.777618,487.733063 176.192154,509.281097 
	C175.413879,537.925903 175.995728,566.607727 176.010681,595.273682 
	C176.011612,597.042297 176.165070,598.810791 176.251389,600.661377 
	C320.996246,600.661377 465.230988,600.661377 610.000000,600.661377 
	C610.000000,598.370056 610.000000,596.411621 610.000000,594.453186 
	C610.000000,568.120544 610.170471,541.786133 609.903687,515.456177 
	C609.815125,506.719177 609.273804,497.876801 607.779297,489.284424 
	C603.072998,462.227417 594.100647,436.627838 579.976318,412.950623 
	C567.224854,391.574890 551.394897,372.756653 532.243103,356.904572 
	C516.030762,343.485504 498.448090,332.042358 478.877472,324.048553 
	C470.348633,320.564850 461.488373,317.892578 452.031097,314.518372 
M480.893372,839.666504 
	C467.602844,806.058533 433.570557,780.587402 392.098236,783.136414 
	C358.129059,785.224243 325.058990,806.089844 313.428436,843.189026 
	C297.696167,893.371765 317.328857,930.052979 361.725281,955.322510 
	C358.781433,960.333130 355.738831,965.423645 352.780304,970.562500 
	C338.286194,995.738281 323.859650,1020.953186 309.306824,1046.094849 
	C305.040497,1053.465576 304.705292,1060.939697 308.873779,1068.174194 
	C313.157623,1075.609131 319.484192,1080.075073 328.662994,1080.052124 
	C374.306488,1079.938110 419.952881,1079.724976 465.592987,1080.134155 
	C484.070312,1080.299927 494.691315,1060.948242 486.183777,1046.471436 
	C483.341980,1041.635620 480.730713,1036.664917 477.926941,1031.806274 
	C468.605957,1015.653442 459.236053,999.528931 449.903442,983.382874 
	C444.482178,974.003662 439.096313,964.604065 433.681213,955.190552 
	C487.364899,928.400452 495.024536,874.058960 480.893372,839.666504 
z"/>
</svg>