<svg version="1.1" id="Layer_1" xmlns="http://www.w3.org/2000/svg" xmlns:xlink="http://www.w3.org/1999/xlink" x="0px" y="0px"
	 width="100%" viewBox="0 0 233 227" enable-background="new 0 0 233 227" xml:space="preserve">
<path fill="#67E8F9" opacity="1.000000" stroke="none" 
	d="
M133.000000,228.000000 
	C122.979103,228.000000 112.958214,228.000000 102.441986,227.620026 
	C99.319656,219.781342 96.920822,212.229645 93.940277,204.914978 
	C92.914978,202.398758 90.864998,199.689133 88.543999,198.425812 
	C81.441322,194.559860 74.041206,191.211258 66.612061,187.995804 
	C64.868286,187.241074 62.401291,187.293015 60.530823,187.853775 
	C54.378414,189.698288 48.160686,191.533432 42.325550,194.164917 
	C37.219231,196.467743 34.257767,194.439484 31.377466,190.754913 
	C27.724089,186.081375 24.262180,181.218353 20.223249,176.899445 
	C17.327843,173.803329 17.589571,171.105881 19.576633,168.012421 
	C22.161007,163.989029 25.043055,160.136536 27.360207,155.967712 
	C29.547239,152.033005 33.160660,148.516556 31.920864,143.272095 
	C30.103960,135.586441 28.578730,127.823479 26.472685,120.219910 
	C25.889914,118.115913 24.029978,115.963898 22.170282,114.687019 
	C15.245510,109.932442 8.077014,105.532845 1.000000,101.000000 
	C1.000000,99.933327 1.000000,98.866661 1.321015,97.178879 
	C3.550177,88.096947 5.458324,79.636116 7.409399,70.984940 
	C14.371135,70.291161 20.927837,69.694794 27.470015,68.967743 
	C32.702457,68.386246 37.750389,67.607735 41.058105,62.539948 
	C43.478733,58.831272 46.720154,55.668636 49.312679,52.059311 
	C52.791519,47.216057 57.559162,42.902100 56.043854,35.848141 
	C55.148525,31.680275 54.908680,27.375748 54.135712,23.176550 
	C52.700916,15.381884 53.730911,13.153687 60.841015,9.593759 
	C66.561005,6.729837 72.280365,3.864634 78.000000,1.000000 
	C79.066673,1.000000 80.133339,1.000000 81.720886,1.311745 
	C88.608856,7.958549 93.965454,16.587671 101.634964,19.965988 
	C108.910446,23.170744 118.608261,20.877855 127.240929,20.997753 
	C128.239182,21.011618 129.305786,21.220482 130.222031,20.944700 
	C132.068619,20.388897 134.272018,20.014198 135.557129,18.768991 
	C141.515961,12.995173 147.210693,6.948783 153.000000,1.000000 
	C154.066666,1.000000 155.133347,1.000000 156.768188,1.304419 
	C164.322235,4.966983 171.297867,8.346725 178.299515,11.671634 
	C180.770126,12.844866 181.797424,14.075174 181.237976,17.347639 
	C179.992935,24.630430 179.548355,32.061901 179.044922,39.450993 
	C178.924896,41.212578 179.358780,43.417953 180.384277,44.783657 
	C185.817184,52.018875 191.424850,59.130867 197.222626,66.076302 
	C198.196930,67.243469 200.352341,67.704895 202.040527,67.948677 
	C210.481522,69.167595 218.948669,70.205330 227.414673,71.307816 
	C229.638687,79.984680 231.819351,88.492340 234.000000,97.000000 
	C234.000000,98.066673 234.000000,99.133339 233.680725,100.727234 
	C226.957062,105.305977 220.360153,109.092270 214.239746,113.535027 
	C211.665558,115.403618 209.190964,118.374825 208.259995,121.343132 
	C206.250275,127.751038 205.636139,134.589249 203.741425,141.043091 
	C202.377975,145.687332 203.279114,149.455780 205.759628,153.220505 
	C209.025177,158.176666 212.572662,162.984009 215.368256,168.193741 
	C216.410950,170.136856 216.700119,173.743713 215.571457,175.368164 
	C211.348145,181.446808 206.379349,187.005661 201.724335,192.787003 
	C199.530731,195.511383 197.056946,195.747986 193.849442,194.487259 
	C187.870895,192.137344 181.833725,189.824646 175.637772,188.191315 
	C172.906097,187.471207 169.463867,187.768585 166.803345,188.794571 
	C160.653839,191.166046 154.665985,194.043365 148.853363,197.164001 
	C146.083389,198.651154 142.715805,200.676941 141.607574,203.299194 
	C138.220367,211.313858 135.797821,219.736237 133.000000,228.000000 
M88.999344,142.498779 
	C99.151199,152.767838 111.851616,156.387421 125.431900,153.496796 
	C145.259949,149.276276 158.463730,131.705139 157.120682,111.166214 
	C155.558304,87.273232 131.021149,69.572319 108.313072,75.430191 
	C78.845390,83.031792 66.537483,118.344040 88.999344,142.498779 
z"/>
</svg>