<svg version="1.1" id="Layer_1" xmlns="http://www.w3.org/2000/svg" xmlns:xlink="http://www.w3.org/1999/xlink" x="0px" y="0px"
	 width="100%" viewBox="0 0 793 1271" enable-background="new 0 0 793 1271" xml:space="preserve">
<path fill="#67E8F9" opacity="1.000000" stroke="none" 
	d="
M0.999996,1135.000000 
	C1.000000,1003.311340 1.000000,871.622620 1.283644,739.318359 
	C1.378190,737.801819 1.189092,736.900940 0.999997,736.000000 
	C1.000000,735.555542 1.000000,735.111145 1.323866,734.136108 
	C2.429786,730.429932 3.327142,727.277832 3.976056,724.075317 
	C10.544505,691.658569 26.167900,664.148621 49.600170,641.091248 
	C56.040821,634.753662 63.379848,629.231812 70.783630,624.012207 
	C74.368080,621.485168 75.062546,618.795532 75.059105,614.885437 
	C74.982056,527.220886 74.877342,439.555969 75.090767,351.891876 
	C75.140854,331.322998 75.732826,310.714569 77.194771,290.204071 
	C78.210625,275.951965 80.247025,261.634705 83.389114,247.698654 
	C91.816765,210.319519 106.716095,175.499451 128.010605,143.611908 
	C144.995392,118.178001 165.028671,95.411316 188.604843,75.715996 
	C207.727859,59.740810 228.320740,46.144192 250.463409,34.888073 
	C273.503906,23.175541 297.715454,14.569421 322.976013,9.014338 
	C340.895844,5.073568 358.950256,2.112841 377.370453,1.956414 
	C378.582916,1.946118 379.790283,1.332813 381.000000,0.999997 
	C388.355347,1.000000 395.710724,1.000000 403.791473,1.337783 
	C419.630127,3.153685 434.930084,3.607614 449.818115,6.321404 
	C481.607483,12.115991 511.890808,22.580931 540.617249,37.718006 
	C568.195251,52.249870 593.034485,70.438721 615.271240,92.057556 
	C626.034485,102.521713 635.981995,113.999367 645.134155,125.912880 
	C670.662659,159.143723 688.921936,196.144943 699.751221,236.673019 
	C705.295227,257.421112 709.610229,278.595337 709.787781,300.028351 
	C710.357849,368.844635 710.001953,437.668579 709.988098,506.489594 
	C709.987793,508.240082 709.812073,509.990540 709.726318,511.587646 
	C676.850952,511.587646 644.616760,511.587646 612.000000,511.587646 
	C612.000000,509.033630 612.000000,506.889587 612.000000,504.745575 
	C612.000000,442.256775 612.340088,379.764801 611.760437,317.281372 
	C611.615845,301.704742 609.785217,285.879517 606.502441,270.648590 
	C598.449585,233.286819 580.917114,200.383179 555.358093,171.997421 
	C538.405884,153.170349 518.640198,137.689056 496.258179,125.650383 
	C469.131348,111.059593 440.135101,102.395828 409.519714,100.232330 
	C390.694061,98.901970 371.690979,99.360382 353.017029,103.146095 
	C328.578705,108.100410 305.429565,116.462204 283.773712,129.010208 
	C255.081253,145.635406 231.578003,167.735733 212.551178,194.793457 
	C198.238724,215.146973 187.721771,237.379700 181.604279,261.362122 
	C177.836456,276.133148 174.433975,291.498596 174.329498,306.621094 
	C173.676758,401.099670 174.000031,495.584961 174.000061,590.068054 
	C174.000061,591.849182 174.000061,593.630249 174.000061,596.000000 
	C176.890427,596.000000 179.174225,596.000000 181.458023,596.000000 
	C327.598511,596.000000 473.739014,595.981934 619.879517,596.042358 
	C629.161743,596.046204 638.528442,595.992737 647.704834,597.156372 
	C659.587097,598.663330 671.656372,600.266113 683.047424,603.770508 
	C712.507690,612.833923 737.092041,629.568970 756.977661,653.332458 
	C774.418213,674.174194 785.909851,697.696777 791.244446,724.308228 
	C791.838257,727.270569 793.066162,730.105835 794.000000,733.000000 
	C794.000000,867.022034 794.000000,1001.044006 793.678101,1135.727295 
	C792.902649,1137.784424 792.369568,1139.160278 792.008362,1140.579834 
	C789.899231,1148.869141 788.581116,1157.448608 785.610107,1165.413208 
	C775.882812,1191.489380 761.338074,1214.347290 739.940552,1232.712158 
	C720.796875,1249.142700 699.441040,1261.022095 674.944824,1267.086182 
	C667.356140,1268.964844 659.651550,1270.375244 652.000000,1272.000000 
	C482.644653,1272.000000 313.289307,1272.000000 143.229004,1271.671265 
	C138.761719,1270.862427 134.950165,1270.623169 131.244629,1269.865356 
	C87.657639,1260.950684 52.996662,1238.430054 27.870768,1201.588379 
	C14.752319,1182.352905 6.388021,1161.199829 2.921680,1138.130249 
	C2.754210,1137.015747 1.661730,1136.040283 0.999996,1135.000000 
M484.888184,1040.698120 
	C484.295654,1039.896973 483.618256,1039.144775 483.122955,1038.287354 
	C469.417816,1014.561829 455.721649,990.830933 442.049255,967.086426 
	C439.289215,962.293213 436.630432,957.441650 433.708191,952.230408 
	C460.910370,939.146484 478.699158,918.565552 485.551453,889.594666 
	C492.437317,860.481567 485.640869,833.759705 466.472504,811.291992 
	C430.585327,769.227722 369.948456,767.874268 331.609924,808.173462 
	C312.429718,828.334595 304.148193,853.172668 308.123138,881.039062 
	C312.837158,914.086670 331.421600,937.432861 361.312836,952.314453 
	C360.184021,954.535156 359.376953,956.327332 358.396088,958.018677 
	C352.766083,967.726807 347.043884,977.381714 341.448456,987.109558 
	C330.748108,1005.712708 320.311859,1024.471436 309.357513,1042.923096 
	C304.500946,1051.103516 303.639648,1058.884155 308.574921,1067.107422 
	C313.093323,1074.635986 319.874542,1078.883667 328.533295,1078.916138 
	C374.517700,1079.088745 420.503571,1079.105591 466.487579,1078.887329 
	C473.910858,1078.852173 480.540314,1075.994873 485.230682,1069.554932 
	C492.144165,1060.062500 491.023132,1050.763916 484.888184,1040.698120 
z"/>
</svg>