<?xml version="1.0" encoding="UTF-8"?><svg id="Layer_1" xmlns="http://www.w3.org/2000/svg" xmlns:xlink="http://www.w3.org/1999/xlink" viewBox="0 0 995 995"><defs><style>.cls-1{fill:none;}.cls-2{clip-path:url(#clippath);}.cls-3{fill:#67e8f9;}.cls-4{fill:#cafeff;}</style><clipPath id="clippath"><path class="cls-1" d="M335.27,522.15c-16.96,0-37.9,0-64.93,0-22.06,0-60.05-116.57-60.05-116.57l43.59-189.62,51.22-112.24s142.41,13.08,152.94,14.17c10.53,1.09,178.35,62.12,184.89,64.3,6.54,2.18,139.49,104.62,141.67,110.06,2.18,5.45-25.06,170.89-26.15,173.71s-101.35,86.74-101.35,86.74l-112.24,58.85-187.98-25.06-16.89-56.12,48.49-38.68-2.72-25.71-19.62,30.07-30.86,26.12Z"/></clipPath></defs><path class="cls-3" d="M657.4,580.96c-20.8-22.59-47.99-38.91-81.58-48.92-1.02-.31-2.05-.6-3.1-.89-32.6-9.02-76.77-9.01-111.52-9.01h-189.52v369.14h207.61c45.83,0,85.28-7.48,118.31-22.44,33.04-14.94,58.38-36.52,76.04-64.71,17.66-28.18,26.49-62.07,26.49-101.66,0-50.1-14.24-90.62-42.73-121.51Zm-222.3,175.43c-2.33,0-3.78-2.53-2.62-4.55l12.13-21.1,5.05-8.79c-13.53-4.16-23.36-16.79-23.36-31.74,0-19.59,16.91-35.22,36.88-32.98,14.98,1.68,27.16,13.76,28.99,28.78,2.04,16.73-8.33,31.39-23.1,35.93l5.05,8.79,12.13,21.1c1.16,2.02-.29,4.55-2.62,4.55h-48.54Z"/><g class="cls-2"><path class="cls-4" d="M308.6,850.23h-10.05c-14.79,0-26.79-11.99-26.79-26.79V197.55c0-14.79,11.99-26.79,26.79-26.79h152.35c45.2,0,84.26,7.82,117.19,23.44,32.93,15.63,58.39,37.95,76.39,66.97,17.99,29.02,26.99,63.9,26.99,104.64s-9,75.97-26.99,106.52c-18,30.55-43.46,54.27-76.39,71.15-32.93,16.89-71.99,25.32-117.19,25.32h-77.42c-14.79,0-26.79-11.99-26.79-26.79h0c0-14.79,11.99-26.79,26.79-26.79h62.35c34.6,0,64.66-6,90.19-18,25.53-11.99,45.27-29.09,59.23-51.27,13.95-22.18,20.93-48.34,20.93-78.48s-6.98-56.85-20.93-78.48c-13.96-21.62-33.69-38.09-59.23-49.39-25.53-11.3-55.6-16.95-90.19-16.95h-73.66c-14.79,0-26.79,11.99-26.79,26.79V823.45c0,14.79-11.99,26.79-26.79,26.79Z"/></g></svg>